<svg width="512" height="512" viewBox="0 0 512 512" fill="none" xmlns="http://www.w3.org/2000/svg">
<path d="M305.975 298.814L328.679 301.197V486L265.967 419.035V312.499L284.181 321.394L305.975 298.814ZM206.025 298.814L183.309 301.197V486L246.02 419.035V312.499L227.807 321.394L206.025 298.814ZM378.005 183.034L385.352 208.608L363.297 223.478L361.45 250.049L335.64 256.474L324.837 280.788L298.377 277.993L279.902 297.08L256 285.403L232.098 297.08L213.623 277.93L187.163 280.725L176.36 256.412L150.55 250.049L148.703 223.515L126.585 208.595L133.933 183.022L118.339 161.478L133.983 139.958L126.585 114.435L148.653 99.565L150.5 73.03L176.36 66.668L187.163 42.355L213.623 45.149L232.098 26L256 37.677L279.902 26L298.377 45.149L324.837 42.355L335.64 66.668L361.45 73.093L363.297 99.627L385.352 114.497L378.005 140.071L393.661 161.478L378.005 183.034ZM328.791 161.478C328.791 147.19 324.554 133.223 316.616 121.342C308.678 109.462 297.395 100.203 284.195 94.7351C270.994 89.2673 256.469 87.8366 242.455 90.6241C228.442 93.4116 215.569 100.292 205.466 110.395C195.363 120.498 188.482 133.371 185.695 147.384C182.908 161.398 184.338 175.923 189.806 189.124C195.274 202.324 204.533 213.607 216.413 221.545C228.294 229.483 242.261 233.72 256.549 233.72C275.699 233.69 294.057 226.069 307.599 212.528C321.14 198.986 328.761 180.629 328.791 161.478ZM256.549 109.195C246.209 109.195 236.1 112.261 227.503 118.006C218.905 123.751 212.204 131.916 208.247 141.469C204.29 151.023 203.254 161.535 205.271 171.676C207.289 181.818 212.268 191.134 219.58 198.446C226.891 205.757 236.207 210.737 246.349 212.754C256.49 214.772 267.002 213.737 276.556 209.78C286.109 205.823 294.274 199.122 300.019 190.524C305.764 181.926 308.831 171.818 308.831 161.478C308.791 147.628 303.269 134.356 293.472 124.566C283.675 114.776 270.399 109.263 256.549 109.233V109.195Z" fill="#F8F8F8"/>
</svg>
