<svg width="256" height="256" viewBox="0 0 256 256" fill="none" xmlns="http://www.w3.org/2000/svg">
<g clip-path="url(#clip0_127_18)">
<path d="M196 0H60C26.8629 0 0 26.8629 0 60V196C0 229.137 26.8629 256 60 256H196C229.137 256 256 229.137 256 196V60C256 26.8629 229.137 0 196 0Z" fill="#330000"/>
<path d="M123.733 152.333H84.053L75.946 177.4C75.733 178.36 74.88 179 73.92 178.893H53.866C52.693 178.893 52.373 178.253 52.693 176.973L87.04 78.093C87.36 77.027 87.68 75.853 88.106 74.573C88.533 72.333 88.746 69.987 88.746 67.64C88.64 67.107 89.066 66.573 89.6 66.467H117.226C118.08 66.467 118.506 66.787 118.613 67.32L157.546 177.187C157.866 178.36 157.546 178.893 156.48 178.893H134.186C133.44 179 132.693 178.467 132.48 177.72L123.733 152.333ZM90.24 130.68H117.333C116.693 128.44 115.84 125.773 114.88 123C113.92 120.12 112.96 117.027 112 113.827C110.933 110.52 109.973 107.32 108.906 104.013C107.84 100.707 106.88 97.613 106.026 94.52C105.173 91.534 104.426 88.76 103.68 86.2H103.466C102.506 90.787 101.333 95.374 99.84 99.96C98.24 105.08 96.64 110.413 94.933 115.747C93.5554 120.781 91.99 125.763 90.24 130.68ZM181.333 85.133C177.813 85.24 174.4 83.853 171.84 81.4C169.387 78.733 168.107 75.213 168.213 71.587C168.107 67.96 169.493 64.547 172.053 62.093C174.613 59.64 178.027 58.36 181.547 58.36C185.707 58.36 188.907 59.64 191.253 62.093C193.617 64.6791 194.88 68.0849 194.773 71.587C194.88 75.213 193.6 78.733 191.04 81.4C188.587 83.96 184.96 85.347 181.333 85.133ZM169.387 177.72V95.587C169.387 94.52 169.813 94.093 170.773 94.093H191.893C192.853 94.093 193.28 94.627 193.28 95.587V177.72C193.28 178.893 192.853 179.427 191.893 179.427H170.987C169.92 179.427 169.387 178.787 169.387 177.72Z" fill="#FF9A00"/>
</g>
<defs>
<clipPath id="clip0_127_18">
<rect width="256" height="256" fill="white"/>
</clipPath>
</defs>
</svg>
