<svg width="256" height="256" viewBox="0 0 256 256" fill="none" xmlns="http://www.w3.org/2000/svg">
<g clip-path="url(#clip0_112_24)">
<path d="M196 0H60C26.8629 0 0 26.8629 0 60V196C0 229.137 26.8629 256 60 256H196C229.137 256 256 229.137 256 196V60C256 26.8629 229.137 0 196 0Z" fill="url(#paint0_linear_112_24)"/>
<g filter="url(#filter0_d_112_24)">
<path d="M131.97 196.157C161.646 196.157 179.529 181.626 179.529 157.66C179.529 139.543 166.77 126.428 147.823 124.351V123.597C161.743 121.332 172.666 108.405 172.666 93.969C172.666 73.399 156.427 60 131.68 60H76V196.157H131.97ZM97.653 77.267H126.46C142.12 77.267 151.013 84.25 151.013 96.894C151.013 110.387 140.67 117.935 121.917 117.935H97.653V77.267ZM97.653 178.89V134.071H126.266C146.76 134.071 157.393 141.619 157.393 156.339C157.393 171.058 147.05 178.89 127.523 178.89H97.653Z" fill="url(#paint1_linear_112_24)"/>
<path d="M131.97 196.157C161.646 196.157 179.529 181.626 179.529 157.66C179.529 139.543 166.77 126.428 147.823 124.351V123.597C161.743 121.332 172.666 108.405 172.666 93.969C172.666 73.399 156.427 60 131.68 60H76V196.157H131.97ZM97.653 77.267H126.46C142.12 77.267 151.013 84.25 151.013 96.894C151.013 110.387 140.67 117.935 121.917 117.935H97.653V77.267ZM97.653 178.89V134.071H126.266C146.76 134.071 157.393 141.619 157.393 156.339C157.393 171.058 147.05 178.89 127.523 178.89H97.653Z" stroke="white" stroke-width="2"/>
</g>
</g>
<defs>
<filter id="filter0_d_112_24" x="59" y="47" width="137.529" height="170.157" filterUnits="userSpaceOnUse" color-interpolation-filters="sRGB">
<feFlood flood-opacity="0" result="BackgroundImageFix"/>
<feColorMatrix in="SourceAlpha" type="matrix" values="0 0 0 0 0 0 0 0 0 0 0 0 0 0 0 0 0 0 127 0" result="hardAlpha"/>
<feOffset dy="4"/>
<feGaussianBlur stdDeviation="8"/>
<feColorMatrix type="matrix" values="0 0 0 0 0 0 0 0 0 0 0 0 0 0 0 0 0 0 0.15 0"/>
<feBlend mode="normal" in2="BackgroundImageFix" result="effect1_dropShadow_112_24"/>
<feBlend mode="normal" in="SourceGraphic" in2="effect1_dropShadow_112_24" result="shape"/>
</filter>
<linearGradient id="paint0_linear_112_24" x1="0" y1="0" x2="256" y2="256" gradientUnits="userSpaceOnUse">
<stop stop-color="#9013FE"/>
<stop offset="1" stop-color="#6B11F4"/>
</linearGradient>
<linearGradient id="paint1_linear_112_24" x1="85.793" y1="68.962" x2="148.541" y2="175.084" gradientUnits="userSpaceOnUse">
<stop stop-color="white"/>
<stop offset="1" stop-color="#F1E5FC"/>
</linearGradient>
<clipPath id="clip0_112_24">
<rect width="256" height="256" fill="white"/>
</clipPath>
</defs>
</svg>
