<svg width="39" height="38" viewBox="0 0 39 38" fill="none" xmlns="http://www.w3.org/2000/svg">
<path d="M19.5 0.75C17.0377 0.75 14.5995 1.23498 12.3247 2.17726C10.0498 3.11953 7.98285 4.50065 6.24175 6.24175C2.72544 9.75805 0.75 14.5272 0.75 19.5C0.75 27.7875 6.13125 34.8187 13.575 37.3125C14.5125 37.4625 14.8125 36.8812 14.8125 36.375V33.2062C9.61875 34.3312 8.5125 30.6937 8.5125 30.6937C7.65 28.5187 6.43125 27.9375 6.43125 27.9375C4.725 26.775 6.5625 26.8125 6.5625 26.8125C8.4375 26.9437 9.43125 28.7437 9.43125 28.7437C11.0625 31.5937 13.8187 30.75 14.8875 30.3C15.0562 29.0812 15.5438 28.2562 16.0688 27.7875C11.9063 27.3187 7.5375 25.7062 7.5375 18.5625C7.5375 16.4812 8.25 14.8125 9.46875 13.4812C9.28125 13.0125 8.625 11.0625 9.65625 8.53125C9.65625 8.53125 11.2313 8.025 14.8125 10.4437C16.2938 10.0312 17.9062 9.825 19.5 9.825C21.0938 9.825 22.7062 10.0312 24.1875 10.4437C27.7687 8.025 29.3438 8.53125 29.3438 8.53125C30.375 11.0625 29.7188 13.0125 29.5313 13.4812C30.75 14.8125 31.4625 16.4812 31.4625 18.5625C31.4625 25.725 27.075 27.3 22.8938 27.7687C23.5688 28.35 24.1875 29.4937 24.1875 31.2375V36.375C24.1875 36.8812 24.4875 37.4812 25.4438 37.3125C32.8875 34.8 38.25 27.7875 38.25 19.5C38.25 17.0377 37.765 14.5995 36.8227 12.3247C35.8805 10.0498 34.4994 7.98285 32.7583 6.24175C31.0172 4.50065 28.9502 3.11953 26.6753 2.17726C24.4005 1.23498 21.9623 0.75 19.5 0.75Z" fill="#F8F8F8"/>
</svg>
