<svg width="61" height="61" viewBox="0 0 61 61" fill="none" xmlns="http://www.w3.org/2000/svg">
<path d="M19.825 5.08331H41.175C49.3083 5.08331 55.9166 11.6916 55.9166 19.825V41.175C55.9166 45.0847 54.3635 48.8343 51.5989 51.5989C48.8343 54.3635 45.0847 55.9166 41.175 55.9166H19.825C11.6916 55.9166 5.08331 49.3083 5.08331 41.175V19.825C5.08331 15.9152 6.63645 12.1656 9.40105 9.40105C12.1656 6.63645 15.9152 5.08331 19.825 5.08331ZM19.3166 10.1666C16.8899 10.1666 14.5626 11.1307 12.8466 12.8466C11.1307 14.5626 10.1666 16.8899 10.1666 19.3166V41.6833C10.1666 46.7412 14.2587 50.8333 19.3166 50.8333H41.6833C44.11 50.8333 46.4374 49.8693 48.1533 48.1533C49.8693 46.4374 50.8333 44.11 50.8333 41.6833V19.3166C50.8333 14.2587 46.7412 10.1666 41.6833 10.1666H19.3166ZM43.8437 13.9791C44.6863 13.9791 45.4944 14.3139 46.0903 14.9097C46.6861 15.5055 47.0208 16.3136 47.0208 17.1562C47.0208 17.9988 46.6861 18.8069 46.0903 19.4028C45.4944 19.9986 44.6863 20.3333 43.8437 20.3333C43.0011 20.3333 42.193 19.9986 41.5972 19.4028C41.0014 18.8069 40.6666 17.9988 40.6666 17.1562C40.6666 16.3136 41.0014 15.5055 41.5972 14.9097C42.193 14.3139 43.0011 13.9791 43.8437 13.9791ZM30.5 17.7916C33.8704 17.7916 37.1029 19.1306 39.4861 21.5138C41.8694 23.8971 43.2083 27.1295 43.2083 30.5C43.2083 33.8704 41.8694 37.1029 39.4861 39.4861C37.1029 41.8694 33.8704 43.2083 30.5 43.2083C27.1295 43.2083 23.8971 41.8694 21.5138 39.4861C19.1306 37.1029 17.7916 33.8704 17.7916 30.5C17.7916 27.1295 19.1306 23.8971 21.5138 21.5138C23.8971 19.1306 27.1295 17.7916 30.5 17.7916ZM30.5 22.875C28.4777 22.875 26.5383 23.6783 25.1083 25.1083C23.6783 26.5383 22.875 28.4777 22.875 30.5C22.875 32.5223 23.6783 34.4617 25.1083 35.8917C26.5383 37.3216 28.4777 38.125 30.5 38.125C32.5223 38.125 34.4617 37.3216 35.8917 35.8917C37.3216 34.4617 38.125 32.5223 38.125 30.5C38.125 28.4777 37.3216 26.5383 35.8917 25.1083C34.4617 23.6783 32.5223 22.875 30.5 22.875Z" fill="#F8F8F8"/>
</svg>
