<svg width="72" height="72" viewBox="0 0 72 72" fill="none" xmlns="http://www.w3.org/2000/svg">
<path d="M16.875 11.25C15.3864 11.2606 13.9618 11.8566 12.9092 12.9092C11.8566 13.9618 11.2606 15.3864 11.25 16.875V55.125C11.25 58.2007 13.7993 60.75 16.875 60.75H55.125C58.2007 60.75 60.75 58.2007 60.75 55.125V16.875C60.75 13.7993 58.2007 11.25 55.125 11.25H16.875ZM16.875 15.75H55.125C55.7662 15.75 56.25 16.2338 56.25 16.875V55.125C56.2531 55.2736 56.2261 55.4212 56.1706 55.5591C56.1152 55.697 56.0324 55.8222 55.9273 55.9273C55.8222 56.0324 55.697 56.1152 55.5591 56.1706C55.4212 56.2261 55.2736 56.2531 55.125 56.25H16.875C16.7263 56.2534 16.5785 56.2266 16.4405 56.1713C16.3025 56.1159 16.1771 56.0332 16.072 55.928C15.9668 55.8229 15.8841 55.6975 15.8287 55.5595C15.7734 55.4215 15.7466 55.2737 15.75 55.125V16.875C15.75 16.2338 16.2338 15.75 16.875 15.75ZM23.4855 19.6177C22.9699 19.6053 22.457 19.6961 21.977 19.8849C21.497 20.0736 21.0596 20.3564 20.6905 20.7167C20.3214 21.077 20.0281 21.5074 19.8279 21.9827C19.6276 22.458 19.5245 22.9686 19.5245 23.4844C19.5245 24.0001 19.6276 24.5107 19.8279 24.986C20.0281 25.4613 20.3214 25.8918 20.6905 26.2521C21.0596 26.6123 21.497 26.8952 21.977 27.0839C22.457 27.2726 22.9699 27.3634 23.4855 27.351C24.4948 27.3267 25.4547 26.9086 26.1599 26.1861C26.8652 25.4636 27.26 24.494 27.26 23.4844C27.26 22.4747 26.8652 21.5051 26.1599 20.7826C25.4547 20.0602 24.4948 19.6421 23.4855 19.6177ZM43.803 29.8823C40.5788 29.8823 38.4345 31.6485 37.548 33.327H37.4062V30.375H31.077V51.75H37.6875V41.202C37.6875 38.4165 38.241 35.7188 41.6948 35.7188C45.0968 35.7188 45.1417 38.8643 45.1417 41.3438V51.75H51.75V40.0073C51.75 34.2608 50.526 29.8823 43.803 29.8823ZM20.25 30.375V51.75H26.9302V30.375H20.25Z" fill="#F8F8F8"/>
</svg>
