<svg width="256" height="256" viewBox="0 0 256 256" fill="none" xmlns="http://www.w3.org/2000/svg">
<rect width="256" height="256" rx="20" fill="white"/>
<path d="M25 107V147.933H32.1167V115.748L58.3623 147.949H102.932V141.414H74.1712V130.608H97.298V124.073H74.1712V113.553H102.931V107.013H67.053V113.553H67.0562V147.647L33.895 107H25ZM161.942 107.016V113.554H176.474V147.954H183.588V113.554H197.826V107.014H161.942V107.016ZM111.533 107.033L144.895 147.97H154.234L137.553 127.516L154.21 107.065L144.892 107.081L132.888 121.796L120.85 107.035H111.531L111.533 107.033ZM224.443 130.228C223.219 130.228 222.118 130.432 221.143 130.854C220.174 131.272 219.408 131.86 218.848 132.615C218.284 133.371 218.003 134.254 218.003 135.259C218.003 136.482 218.418 137.458 219.258 138.193C220.09 138.931 221.233 139.479 222.676 139.839L224.672 140.335C225.235 140.47 225.787 140.647 226.323 140.866C226.739 141.028 227.114 141.278 227.422 141.598C227.689 141.906 227.831 142.301 227.821 142.706C227.826 143.171 227.664 143.622 227.366 143.982C227.042 144.368 226.62 144.661 226.143 144.832C225.56 145.044 224.942 145.148 224.321 145.137C223.71 145.145 223.102 145.047 222.525 144.848C222.023 144.669 221.577 144.364 221.231 143.963C220.891 143.54 220.693 143.023 220.665 142.483H217.541C217.584 143.611 217.888 144.574 218.452 145.362C219.015 146.151 219.797 146.75 220.801 147.158C221.799 147.571 222.985 147.778 224.345 147.778C225.753 147.778 226.951 147.561 227.939 147.142C228.932 146.713 229.69 146.12 230.215 145.366C230.741 144.605 231 143.732 231 142.731C231 141.991 230.855 141.346 230.572 140.798C230.291 140.252 229.896 139.772 229.413 139.388C228.911 138.991 228.354 138.666 227.759 138.424C227.14 138.164 226.499 137.96 225.844 137.812L224.202 137.415C223.839 137.329 223.481 137.226 223.129 137.105C222.791 136.992 222.469 136.84 222.168 136.652C221.888 136.487 221.651 136.259 221.476 135.988C221.301 135.712 221.212 135.392 221.221 135.066C221.223 134.656 221.357 134.257 221.604 133.927C221.856 133.593 222.224 133.33 222.696 133.133C223.237 132.927 223.815 132.828 224.395 132.84C225.337 132.84 226.104 133.041 226.697 133.449C226.982 133.639 227.221 133.891 227.395 134.186C227.568 134.48 227.672 134.809 227.699 135.149H230.757C230.757 134.234 230.468 133.342 229.931 132.596C229.395 131.855 228.657 131.272 227.715 130.854C226.775 130.433 225.687 130.228 224.443 130.228ZM211.572 130.457V142.453C211.567 143.052 211.472 143.561 211.288 143.969C211.123 144.355 210.838 144.68 210.474 144.897C210.123 145.108 209.689 145.215 209.182 145.215C208.715 145.215 208.303 145.124 207.941 144.945C207.592 144.776 207.3 144.51 207.101 144.18C206.89 143.818 206.782 143.406 206.787 142.989H203.628C203.628 144.039 203.864 144.916 204.347 145.62C204.827 146.325 205.504 146.878 206.296 147.212C207.17 147.581 208.113 147.765 209.064 147.752C210.186 147.752 211.174 147.539 212.017 147.117C212.845 146.711 213.536 146.077 214.007 145.291C214.478 144.498 214.721 143.554 214.728 142.452V130.457H211.572ZM125.74 130.551L111.507 148H120.85L130.404 136.274L125.74 130.551ZM199.426 144.053C198.904 144.053 198.46 144.231 198.09 144.587C197.911 144.75 197.769 144.949 197.674 145.17C197.578 145.391 197.532 145.629 197.536 145.869C197.53 146.112 197.576 146.354 197.672 146.578C197.767 146.802 197.91 147.003 198.09 147.169C198.46 147.527 198.904 147.703 199.426 147.703C199.751 147.705 200.07 147.619 200.349 147.455C200.632 147.295 200.869 147.068 201.038 146.794C201.212 146.516 201.304 146.196 201.305 145.869C201.305 145.628 201.255 145.39 201.157 145.169C201.059 144.948 200.915 144.75 200.736 144.587C200.564 144.416 200.36 144.281 200.135 144.189C199.91 144.098 199.669 144.051 199.426 144.053Z" fill="black"/>
</svg>
