<svg width="256" height="256" viewBox="0 0 256 256" fill="none" xmlns="http://www.w3.org/2000/svg">
<rect width="256" height="256" rx="20" fill="white"/>
<path d="M29 128C29 156.761 73.3242 180.079 128 180.079C182.676 180.079 227 156.761 227 128C227 99.239 182.674 75.9214 128 75.9214C73.3242 75.9214 29 99.239 29 128Z" fill="url(#paint0_radial_114_60)"/>
<path d="M128 176.211C180.54 176.211 223.133 154.625 223.133 128C223.133 101.372 180.54 79.7886 128 79.7886C75.4604 79.7886 32.8672 101.372 32.8672 128C32.8672 154.625 75.4604 176.211 128 176.211Z" fill="#777BB3"/>
<path d="M82.7877 133.977C87.1081 133.977 90.3318 133.18 92.3721 131.61C94.3924 130.054 95.7861 127.361 96.5178 123.605C97.1984 120.094 96.9385 117.644 95.7443 116.32C94.5254 114.968 91.888 114.282 87.9063 114.282H81.0011L77.1757 133.977H82.7877ZM60.2049 158.237C60.0465 158.237 59.89 158.201 59.7469 158.133C59.6037 158.066 59.4773 157.967 59.3767 157.845C59.2762 157.722 59.204 157.579 59.1653 157.425C59.1266 157.272 59.1224 157.111 59.153 156.956L69.2959 104.767C69.3438 104.523 69.4748 104.304 69.6666 104.145C69.8584 103.987 70.0991 103.9 70.3477 103.9H92.2113C99.0825 103.9 104.196 105.765 107.412 109.445C110.642 113.142 111.642 118.315 110.378 124.813C109.863 127.46 108.978 129.918 107.748 132.121C106.468 134.387 104.835 136.434 102.909 138.185C100.541 140.4 97.8605 142.008 94.9477 142.954C92.0829 143.888 88.4013 144.361 84.0113 144.361H75.157L72.6294 157.367C72.5817 157.612 72.4503 157.833 72.2579 157.991C72.0654 158.15 71.8238 158.237 71.5744 158.237H60.2049Z" fill="black"/>
<path d="M81.8879 115.356H87.9068C92.7129 115.356 94.382 116.411 94.9497 117.04C95.8886 118.083 96.0681 120.284 95.4617 123.401C94.7826 126.892 93.5235 129.369 91.7183 130.758C89.8713 132.181 86.8642 132.902 82.7882 132.902H78.4786L81.8879 115.356ZM92.2117 102.826H70.3497C69.8512 102.826 69.3681 102.999 68.9833 103.316C68.5984 103.633 68.3356 104.074 68.2398 104.563L58.0969 156.753C58.037 157.064 58.0465 157.384 58.1247 157.691C58.2029 157.998 58.3479 158.284 58.5493 158.528C58.7507 158.772 59.0036 158.969 59.2899 159.104C59.5761 159.239 59.8887 159.31 60.2053 159.31H71.5749C72.0734 159.31 72.5562 159.136 72.9408 158.819C73.3254 158.502 73.5879 158.061 73.6833 157.572L76.0422 145.435H84.0102C88.5147 145.435 92.3076 144.943 95.2823 143.975C98.3404 142.981 101.154 141.297 103.645 138.967C105.65 137.141 107.352 135.007 108.686 132.645C109.971 130.345 110.896 127.777 111.432 125.018C112.762 118.176 111.681 112.698 108.22 108.738C104.792 104.814 99.4062 102.825 92.2117 102.825V102.826ZM75.8721 135.049H82.7882C87.3716 135.049 90.7855 134.187 93.0285 132.458C95.273 130.732 96.7843 127.848 97.5732 123.809C98.3234 119.93 97.9816 117.194 96.5445 115.599C95.1044 114.005 92.2272 113.207 87.9068 113.207H80.1167L75.8721 135.049ZM92.2133 104.97C98.7906 104.97 103.587 106.698 106.604 110.149C109.62 113.602 110.527 118.42 109.326 124.606C108.828 127.155 107.991 129.485 106.813 131.595C105.631 133.708 104.09 135.638 102.186 137.391C99.9152 139.515 97.3953 141.029 94.6187 141.931C91.8436 142.835 88.3074 143.285 84.0117 143.285H74.2726L71.5764 157.16H60.2069L70.3513 104.97H92.2133Z" fill="white"/>
<path d="M136.444 144.361C136.286 144.362 136.129 144.327 135.986 144.259C135.842 144.192 135.715 144.093 135.615 143.971C135.514 143.848 135.441 143.705 135.402 143.552C135.363 143.398 135.359 143.238 135.389 143.082L139.875 119.99C140.304 117.794 140.198 116.219 139.581 115.551C139.202 115.144 138.067 114.462 134.709 114.462H126.578L120.938 143.494C120.89 143.738 120.758 143.958 120.565 144.116C120.373 144.274 120.131 144.36 119.882 144.36H108.605C108.447 144.36 108.29 144.325 108.147 144.258C108.003 144.19 107.877 144.092 107.776 143.97C107.675 143.848 107.602 143.705 107.563 143.551C107.524 143.398 107.519 143.238 107.549 143.082L117.693 90.892C117.741 90.6475 117.872 90.4273 118.065 90.269C118.257 90.1107 118.499 90.0242 118.748 90.0242H130.025C130.183 90.0241 130.34 90.059 130.483 90.1265C130.626 90.1939 130.753 90.2921 130.854 90.4142C130.955 90.5363 131.028 90.6792 131.067 90.8327C131.106 90.9861 131.111 91.1464 131.081 91.302L128.634 103.9H137.379C144.041 103.9 148.558 105.072 151.189 107.49C153.87 109.954 154.708 113.894 153.676 119.204L148.957 143.494C148.909 143.738 148.777 143.958 148.585 144.116C148.392 144.274 148.151 144.36 147.902 144.36L136.444 144.361Z" fill="black"/>
<path d="M130.026 88.9492H118.748C118.249 88.9493 117.766 89.1228 117.381 89.44C116.996 89.7572 116.733 90.1983 116.638 90.6878L106.495 142.876C106.435 143.187 106.444 143.508 106.522 143.815C106.6 144.122 106.745 144.408 106.947 144.652C107.148 144.897 107.401 145.093 107.688 145.229C107.974 145.364 108.287 145.434 108.604 145.435H119.882C120.381 145.435 120.864 145.261 121.249 144.944C121.634 144.627 121.896 144.186 121.992 143.696L127.463 115.535H134.706C138.059 115.535 138.765 116.251 138.791 116.284C138.995 116.501 139.263 117.514 138.82 119.786L134.334 142.876C134.274 143.187 134.283 143.508 134.362 143.815C134.44 144.122 134.585 144.408 134.786 144.653C134.988 144.897 135.241 145.094 135.528 145.229C135.814 145.364 136.127 145.435 136.444 145.435H147.903C148.402 145.434 148.885 145.261 149.269 144.944C149.654 144.626 149.916 144.185 150.012 143.696L154.731 119.41C155.837 113.708 154.891 109.433 151.916 106.7C149.076 104.092 144.321 102.825 137.379 102.825H129.938L132.136 91.5092C132.197 91.198 132.188 90.8773 132.109 90.57C132.031 90.2627 131.886 89.9765 131.685 89.7318C131.483 89.4872 131.23 89.2901 130.943 89.1548C130.656 89.0195 130.343 88.9493 130.026 88.9492ZM130.026 91.0993L127.33 104.972H137.379C143.701 104.972 148.063 106.076 150.46 108.282C152.863 110.488 153.581 114.06 152.623 119.002L147.902 143.286H136.444L140.932 120.194C141.442 117.568 141.253 115.777 140.367 114.821C139.481 113.866 137.594 113.388 134.709 113.388H125.692L119.882 143.285H108.602L118.746 91.0947H130.026V91.0993Z" fill="white"/>
<path d="M171.523 133.977C175.843 133.977 179.069 133.18 181.111 131.61C183.128 130.054 184.523 127.361 185.255 123.605C185.935 120.094 185.677 117.644 184.481 116.32C183.262 114.968 180.625 114.282 176.643 114.282H169.739L165.911 133.977H171.523ZM148.945 158.237C148.786 158.237 148.629 158.202 148.486 158.134C148.342 158.067 148.215 157.968 148.115 157.846C148.014 157.723 147.941 157.58 147.902 157.426C147.863 157.272 147.859 157.112 147.89 156.956L158.033 104.767C158.081 104.523 158.212 104.303 158.405 104.144C158.597 103.986 158.838 103.9 159.088 103.9H180.95C187.821 103.9 192.935 105.765 196.149 109.445C199.381 113.142 200.378 118.315 199.115 124.813C198.632 127.373 197.744 129.84 196.486 132.121C195.206 134.386 193.573 136.433 191.648 138.185C189.281 140.4 186.597 142.008 183.686 142.954C180.821 143.888 177.14 144.361 172.748 144.361H163.895L161.369 157.367C161.322 157.612 161.19 157.833 160.997 157.992C160.804 158.15 160.562 158.237 160.313 158.237H148.945Z" fill="black"/>
<path d="M170.624 115.356H176.643C181.449 115.356 183.118 116.411 183.684 117.04C184.628 118.083 184.804 120.284 184.2 123.401C183.519 126.892 182.26 129.369 180.455 130.758C178.606 132.181 175.599 132.902 171.524 132.902H167.215L170.624 115.356ZM180.948 102.826H159.086C158.588 102.827 158.105 103 157.721 103.317C157.336 103.634 157.073 104.074 156.978 104.563L146.833 156.753C146.773 157.064 146.783 157.385 146.861 157.692C146.939 157.998 147.085 158.284 147.286 158.529C147.488 158.773 147.741 158.97 148.027 159.105C148.314 159.24 148.626 159.31 148.943 159.31H160.313C160.811 159.31 161.294 159.136 161.679 158.819C162.063 158.502 162.326 158.061 162.421 157.572L164.78 145.435H172.747C177.249 145.435 181.044 144.943 184.017 143.975C187.077 142.981 189.891 141.297 192.383 138.966C194.387 137.14 196.088 135.006 197.422 132.645C198.709 130.345 199.631 127.777 200.168 125.018C201.498 118.176 200.419 112.698 196.957 108.738C193.529 104.814 188.144 102.825 180.947 102.825L180.948 102.826ZM164.608 135.049H171.523C176.108 135.049 179.52 134.187 181.766 132.458C184.009 130.732 185.522 127.848 186.308 123.809C187.061 119.93 186.719 117.194 185.279 115.599C183.841 114.005 180.962 113.207 176.643 113.207H168.855L164.608 135.049ZM180.948 104.97C187.524 104.97 192.324 106.698 195.339 110.149C198.355 113.602 199.263 118.42 198.06 124.606C197.565 127.155 196.726 129.485 195.547 131.595C194.367 133.708 192.825 135.638 190.919 137.391C188.65 139.515 186.129 141.029 183.352 141.931C180.578 142.835 177.044 143.285 172.747 143.285H163.009L160.31 157.16H148.94L159.085 104.97H180.948Z" fill="white"/>
<defs>
<radialGradient id="paint0_radial_114_60" cx="0" cy="0" r="1" gradientUnits="userSpaceOnUse" gradientTransform="translate(88.4402 94.2302) scale(130.001 130.001)">
<stop stop-color="#AEB2D5"/>
<stop offset="0.3" stop-color="#AEB2D5"/>
<stop offset="0.75" stop-color="#484C89"/>
<stop offset="1" stop-color="#484C89"/>
</radialGradient>
</defs>
</svg>
