<svg width="128" height="128" viewBox="0 0 128 128" fill="none" xmlns="http://www.w3.org/2000/svg">
<path d="M22.667 1.59998H105.333C117.867 1.59998 128 11.733 128 24.267V103.733C128 116.267 117.867 126.4 105.333 126.4H22.667C10.133 126.4 0 116.267 0 103.733V24.267C0 11.733 10.133 1.59998 22.667 1.59998Z" fill="#001E36"/>
<path d="M45.8668 33.333C44.2668 33.333 42.6668 33.333 41.0138 33.387C39.3598 33.44 37.8128 33.44 36.3728 33.494C34.9328 33.547 33.5998 33.547 32.3198 33.6C31.0928 33.653 30.2398 33.653 29.3328 33.653C28.9598 33.653 28.7998 33.866 28.7998 34.24V89.12C28.7998 89.6 29.0128 89.814 29.4398 89.814H39.7868C40.1598 89.76 40.4268 89.44 40.3728 89.067V71.947C41.3858 71.947 42.1328 71.947 42.6668 72C43.1998 72.053 44.0528 72.053 45.3328 72.053C49.7068 72.053 53.7068 71.573 57.3328 70.24C60.7998 68.96 63.7868 66.72 65.9198 63.733C68.0528 60.747 69.1198 56.96 69.1198 52.373C69.1198 49.973 68.6938 47.68 67.8938 45.44C67.0467 43.1576 65.7187 41.0841 63.9998 39.36C61.9716 37.3896 59.5303 35.8955 56.8528 34.986C53.8658 33.866 50.2398 33.333 45.8668 33.333ZM47.0568 43.838C48.9568 43.874 50.8068 44.206 52.5328 44.906C54.0798 45.493 55.3598 46.56 56.2668 47.946C57.1185 49.38 57.5441 51.0269 57.4938 52.694C57.4938 55.04 56.9598 56.854 55.8398 58.187C54.6658 59.52 53.1728 60.534 51.4668 61.014C49.4928 61.654 47.4128 61.973 45.3328 61.973H42.5058C41.8658 61.973 41.1738 61.92 40.4268 61.867V43.947C40.7998 43.893 41.5468 43.84 42.6138 43.894C43.6268 43.84 44.8528 43.84 46.2398 43.84C46.5128 43.833 46.7858 43.832 47.0568 43.838ZM91.7868 46.561C87.9998 46.561 84.8528 47.147 82.3468 48.427C80.0538 49.494 78.0798 51.2 76.7468 53.333C75.5738 55.307 74.9328 57.493 74.9328 59.787C74.8871 61.6738 75.3086 63.5425 76.1598 65.227C77.1575 67.0205 78.5424 68.569 80.2138 69.76C82.5601 71.3644 85.106 72.6553 87.7868 73.6C90.3998 74.613 92.1598 75.413 93.0138 76.106C93.8668 76.8 94.2938 77.493 94.2938 78.24C94.2938 79.2 93.7068 80.107 92.8538 80.48C91.8938 80.96 90.4538 81.227 88.4268 81.227C86.2938 81.227 84.1598 80.96 82.1328 80.427C79.8056 79.9067 77.5742 79.025 75.5198 77.814C75.3598 77.707 75.1998 77.654 75.0398 77.761C74.8798 77.867 74.8268 78.08 74.8268 78.24V87.52C74.7738 87.947 75.0398 88.32 75.4138 88.533C77.1433 89.3411 78.9727 89.9151 80.8538 90.24C83.2538 90.72 85.6528 90.933 88.1058 90.933C91.9458 90.933 95.1468 90.347 97.7598 89.227C100.16 88.267 102.24 86.614 103.733 84.48C105.131 82.3818 105.856 79.9077 105.813 77.387C105.865 75.4828 105.444 73.5954 104.587 71.894C103.573 70.08 102.133 68.587 100.373 67.467C97.7979 65.8503 95.0412 64.5432 92.1598 63.573C90.8729 63.0407 89.6094 62.4535 88.3728 61.813C87.6798 61.44 87.0398 60.96 86.5598 60.373C86.2398 59.946 86.0268 59.467 86.0268 58.987C86.0268 58.507 86.1868 57.974 86.4528 57.547C86.8268 57.014 87.4128 56.64 88.1058 56.48C89.1198 56.214 90.2398 56.053 91.3058 56.106C93.3328 56.106 95.3058 56.373 97.2798 56.8C99.0938 57.173 100.8 57.76 102.4 58.614C102.613 58.72 102.88 58.72 103.36 58.614C103.443 58.5525 103.511 58.472 103.558 58.3791C103.604 58.2863 103.628 58.1838 103.627 58.08V49.387C103.627 49.173 103.573 48.96 103.52 48.747C103.413 48.534 103.2 48.32 102.987 48.267C101.516 47.6654 99.9746 47.2531 98.3998 47.04C96.2099 46.7211 93.9998 46.5617 91.7868 46.561Z" fill="#31A8FF"/>
</svg>
