<svg width="256" height="256" viewBox="0 0 256 256" fill="none" xmlns="http://www.w3.org/2000/svg">
<path d="M230.91 172C231.967 173.834 232.254 176.011 231.708 178.056C231.163 180.101 229.829 181.846 228 182.91L132 238.91C130.777 239.623 129.386 239.999 127.97 239.999C126.554 239.999 125.163 239.623 123.94 238.91L27.94 182.91C26.1369 181.827 24.8332 180.076 24.311 178.039C23.7888 176.001 24.0902 173.84 25.15 172.022C26.2098 170.205 27.9426 168.879 29.9733 168.33C32.004 167.781 34.1692 168.054 36 169.09L128 222.74L220 169.09C221.834 168.033 224.011 167.746 226.056 168.292C228.101 168.837 229.846 170.171 230.91 172ZM220 121.09L128 174.74L36 121.09C34.1784 120.183 32.0797 120.004 30.1311 120.59C28.1824 121.176 26.5302 122.482 25.5107 124.244C24.4913 126.005 24.1813 128.088 24.6437 130.07C25.1062 132.051 26.3064 133.782 28 134.91L124 190.91C125.223 191.623 126.614 191.999 128.03 191.999C129.446 191.999 130.837 191.623 132.06 190.91L228.06 134.91C228.982 134.388 229.791 133.689 230.441 132.852C231.09 132.015 231.567 131.057 231.843 130.034C232.12 129.012 232.19 127.944 232.051 126.894C231.912 125.844 231.565 124.832 231.031 123.917C230.497 123.002 229.787 122.202 228.942 121.563C228.097 120.925 227.133 120.461 226.106 120.198C225.08 119.935 224.012 119.878 222.964 120.031C221.915 120.184 220.908 120.544 220 121.09ZM24 80C24.0032 78.5988 24.3744 77.223 25.0763 76.0103C25.7783 74.7976 26.7865 73.7906 28 73.09L124 17.09C125.223 16.3767 126.614 16.0008 128.03 16.0008C129.446 16.0008 130.837 16.3767 132.06 17.09L228.06 73.09C229.268 73.7946 230.27 74.8033 230.966 76.0157C231.662 77.2281 232.029 78.6019 232.029 80C232.029 81.3981 231.662 82.7719 230.966 83.9843C230.27 85.1967 229.268 86.2054 228.06 86.91L132.06 142.91C130.837 143.623 129.446 143.999 128.03 143.999C126.614 143.999 125.223 143.623 124 142.91L28 86.91C26.7865 86.2094 25.7783 85.2024 25.0763 83.9897C24.3744 82.777 24.0032 81.4012 24 80ZM47.88 80L128 126.74L208.12 80L128 33.26L47.88 80Z" fill="#F8F8F8"/>
</svg>
