<svg width="462" height="462"  viewBox="0 0 462 462" fill="none" xmlns="http://www.w3.org/2000/svg">
<path d="M366.713 94.5175C349.064 76.6906 328.043 62.5561 304.875 52.9385C281.706 43.3208 256.855 38.4126 231.77 38.5C126.665 38.5 41.0025 124.162 41.0025 229.267C41.0025 262.955 49.8575 295.68 66.4125 324.555L39.4625 423.5L140.525 396.935C168.438 412.142 199.815 420.227 231.77 420.227C336.875 420.227 422.538 334.565 422.538 229.46C422.538 178.447 402.71 130.515 366.713 94.5175ZM231.77 387.887C203.28 387.887 175.368 380.187 150.92 365.75L145.145 362.285L85.085 378.07L101.063 319.55L97.2125 313.582C81.3841 288.307 72.9795 259.09 72.9575 229.267C72.9575 141.872 144.183 70.6475 231.578 70.6475C273.928 70.6475 313.775 87.2025 343.613 117.232C358.387 131.939 370.095 149.431 378.058 168.696C386.022 187.961 390.083 208.614 390.005 229.46C390.39 316.855 319.165 387.887 231.77 387.887ZM318.78 269.307C313.968 266.997 290.483 255.447 286.248 253.715C281.82 252.175 278.74 251.405 275.468 256.025C272.195 260.837 263.148 271.617 260.453 274.697C257.758 277.97 254.87 278.355 250.058 275.852C245.245 273.542 229.845 268.345 211.75 252.175C197.505 239.47 188.073 223.877 185.185 219.065C182.49 214.252 184.8 211.75 187.303 209.247C189.42 207.13 192.115 203.665 194.425 200.97C196.735 198.275 197.698 196.157 199.238 193.077C200.778 189.805 200.008 187.11 198.853 184.8C197.698 182.49 188.073 159.005 184.223 149.38C180.373 140.14 176.33 141.295 173.443 141.102H164.203C160.93 141.102 155.925 142.257 151.498 147.07C147.263 151.882 134.943 163.432 134.943 186.917C134.943 210.402 152.075 233.117 154.385 236.197C156.695 239.47 188.073 287.595 235.813 308.192C247.17 313.197 256.025 316.085 262.955 318.202C274.313 321.86 284.708 321.282 292.985 320.127C302.225 318.78 321.283 308.577 325.133 297.412C329.175 286.247 329.175 276.815 327.828 274.697C326.48 272.58 323.593 271.617 318.78 269.307Z" fill="#F8F8F8"/>
</svg>
